<svg xmlns="http://www.w3.org/2000/svg" role="img" width="40px" viewBox="0 0 130 130" aria-label="icon">
    <circle cx="65" cy="65" r="55" fill="none" stroke="black" stroke-width="3px" />
    <path fill="black" d="M68.31 85.12H61l-8.63-14.37-9 14.37h-7.2l12.48-19.49-11.78-18.75h7.3l4.5 
      7.49 3.76 6.1 3.72-6.1 4.66-7.49H68L56.11 65.59zM93.35 
      50.63c-1.76-1.83-4.33-2.75-7.68-2.75H72.48v36.24h4.36V68.75h8.83c3.35 0 5.92-.91 
      7.68-2.75S96 61.6 96 58.32s-.88-5.85-2.65-7.69zm-2 9a5 5 0 01-1.53 3.92A6.23 6.23 
      0 0185.56 65h-8.72V51.67h8.72a6.18 6.18 0 014.29 1.38A5 5 0 0191.38 57z" />
    <path fill="black" d="M77.84 85.12h-6.36V46.88h14.19c3.62 0 6.45 1 8.4 3.06C96 52 97 54.78 97 58.32s-1 
      6.35-2.93 8.37-4.78 3.06-8.4 3.06h-7.83zm0-21.16h7.72a5.3 5.3 0 003.62-1.12 4 4 0 
      001.2-3.17V57a4 4 0 00-1.2-3.17 5.3 5.3 0 00-3.62-1.12h-7.72z" />
</svg>